<?xml version="1.0" encoding="utf-8"?>
<!-- Generator: Adobe Illustrator 25.2.0, SVG Export Plug-In . SVG Version: 6.00 Build 0)  -->
<svg version="1.1" id="Calque_1" xmlns="http://www.w3.org/2000/svg" xmlns:xlink="http://www.w3.org/1999/xlink" x="0px" y="0px"
	 viewBox="0 0 26.1 26.6" style="enable-background:new 0 0 26.1 26.6;" xml:space="preserve">
<style type="text/css">
	.st0{fill:#fff;}
</style>
<g>
	<path class="st0" d="M9.6,13.3c0-0.6-0.4-1-1-1H4l1.1-1.1c0.4-0.4,0.4-1,0-1.4s-1-0.4-1.4,0l-2.8,2.8c-0.1,0.1-0.2,0.2-0.2,0.3
		c-0.1,0.2-0.1,0.5,0,0.8c0.1,0.1,0.1,0.2,0.2,0.3l2.8,2.8C3.9,16.9,4.1,17,4.4,17s0.5-0.1,0.7-0.3c0.4-0.4,0.4-1,0-1.4L4,14.3h4.6
		C9.2,14.3,9.6,13.8,9.6,13.3z"/>
	<path class="st0" d="M25.5,13.7c0.1-0.2,0.1-0.5,0-0.8c-0.1-0.1-0.1-0.2-0.2-0.3l-2.8-2.8c-0.4-0.4-1-0.4-1.4,0s-0.4,1,0,1.4
		l1.1,1.1h-4.6c-0.6,0-1,0.4-1,1s0.4,1,1,1h4.6l-1.1,1.1c-0.4,0.4-0.4,1,0,1.4c0.2,0.2,0.5,0.3,0.7,0.3s0.5-0.1,0.7-0.3l2.8-2.8
		C25.4,13.9,25.5,13.8,25.5,13.7z"/>
	<path class="st0" d="M10.4,5.5c0.3,0,0.5-0.1,0.7-0.3l1.1-1.1v4.6c0,0.6,0.4,1,1,1s1-0.4,1-1V4.2l1.1,1.1c0.2,0.2,0.5,0.3,0.7,0.3
		s0.5-0.1,0.7-0.3c0.4-0.4,0.4-1,0-1.4l-2.8-2.8c-0.1-0.1-0.2-0.2-0.3-0.2c-0.2-0.1-0.5-0.1-0.8,0c-0.1,0.1-0.2,0.1-0.3,0.2L9.6,3.8
		c-0.4,0.4-0.4,1,0,1.4C9.8,5.4,10.1,5.5,10.4,5.5z"/>
	<path class="st0" d="M15.2,21.3l-1.1,1.1v-4.6c0-0.6-0.4-1-1-1s-1,0.4-1,1v4.6l-1.1-1.1c-0.4-0.4-1-0.4-1.4,0s-0.4,1,0,1.4l2.8,2.8
		c0.1,0.1,0.2,0.2,0.3,0.2c0.1,0.1,0.3,0.1,0.4,0.1s0.3,0,0.4-0.1c0.1-0.1,0.2-0.1,0.3-0.2l2.8-2.8c0.4-0.4,0.4-1,0-1.4
		S15.6,20.9,15.2,21.3z"/>
</g>
</svg>
